<?xml version="1.0" encoding="utf-8"?>
<!-- Generator: Adobe Illustrator 19.0.0, SVG Export Plug-In . SVG Version: 6.00 Build 0)  -->
<svg version="1.1" id="Layer_1" xmlns="http://www.w3.org/2000/svg" xmlns:xlink="http://www.w3.org/1999/xlink" x="0px" y="0px"
	 viewBox="0 0 71.1 67.3" style="enable-background:new 0 0 71.1 67.3;" xml:space="preserve">
<style type="text/css">
	.st0{fill:#0088D3;}
</style>
<path id="XMLID_894_" class="st0" d="M42.6,24.6c-2.5,1.9-4.9,3.7-7.3,5.6c1.5,1,2.9,2,4.3,2.8c2.9,1.6,3.7,3.9,3.1,7.1
	c-0.9,5.3-1.5,10.6-2.2,16c-0.4,3.2-3,5.3-6.2,4.9c-2.9-0.4-4.9-3.2-4.4-6.3c0.1-0.6,1.8-13,1.8-14c-5.8-3.8-6.4-4.2-8.6-5.6
	c-5-3.3-5.2-9.8-0.5-13.5c4.3-3.3,8.6-6.6,12.9-9.8c3.6-2.7,8.3-2,10.9,1.7c1.9,2.7,3.7,5.4,5.5,8.1c0.2,0.3,0.7,0.6,1.1,0.6
	c3.3,0,6.6,0,9.9,0c2.3,0,4.3,1.8,4.6,4c0.3,2.4-1.1,4.6-3.5,5.2c-0.3,0.1-0.7,0.1-1,0.1c-4.4,0-8.8,0-13.2,0
	c-1.8,0-3.1-0.8-4.1-2.3C44.7,27.7,43.7,26.2,42.6,24.6z M62.8,28.3c0.9,0,1.4-0.5,1.4-1.4c0-0.9-0.5-1.3-1.4-1.4
	c-0.4,0-8.1,0-10.6,0c-1.2,0-2-0.4-2.7-1.4c-1.9-2.8-3.8-5.6-5.7-8.4c-1.7-2.5-4.2-2.9-6.6-1.1c-4.2,3.2-8.3,6.3-12.4,9.5
	c-3.2,2.4-3.1,6.2,0.3,8.4c3,2,6,4,9,5.9c0.9,0.6,1.1,1.3,1,2.2c-0.7,4.9-1.4,9.8-2,14.7c-0.2,1.4,0.6,2.4,1.8,2.5
	c1.2,0.1,2.1-0.6,2.3-2c0.8-5.8,1.6-11.5,2.4-17.3c0.2-1.1-0.2-1.7-1.1-2.3c-2-1.3-4-2.6-6-3.9c-1.7-1.1-1.8-2.8-0.1-4.1
	c2.9-2.2,5.8-4.5,8.7-6.7c1.4-1.1,2.8-0.9,3.8,0.6c1.2,1.7,2.4,3.5,3.5,5.2c0.4,0.6,1,0.9,1.7,0.9C53.5,28.3,61.2,28.4,62.8,28.3z
	 M53.9,14.6c-4,0-7.3-3.2-7.3-7.3c0-4,3.3-7.3,7.3-7.3c3.9,0,7.3,3.3,7.3,7.3C61.2,11.2,57.9,14.5,53.9,14.6z M53.9,11.3
	c2.2,0,4-1.8,4-4c0-2.2-1.8-4-4-4c-2.2,0-4.1,1.9-4,4.1C49.9,9.5,51.7,11.3,53.9,11.3z M7.2,54.6c0.9,0,1.2-0.5,1.3-1.3
	c0.1-0.7,0.2-1.4,0.5-2.1c0.9-1.9,2.4-2.9,4.5-3c0.8-0.1,1.4-0.4,1.4-1.3c-0.1-0.8-0.6-1.1-1.3-1.1c-3.8,0-7.3,3.4-7.4,7.2
	C6.1,54,6.5,54.6,7.2,54.6z M64.8,53.9c0-0.8-0.1-1.5-1-1.6c-1-0.1-1.2,0.5-1.4,1.4c-0.5,3.2-1.9,4.6-5.1,5
	c-0.8,0.1-1.4,0.4-1.3,1.3c0.1,0.9,0.7,1.1,1.5,1.1C61.3,61,64.7,57.7,64.8,53.9z M13.9,39.6C6.2,39.6,0,45.8,0,53.5
	c0,7.7,6.2,13.9,13.9,13.9c7.7,0,13.9-6.2,13.9-13.9C27.8,45.8,21.5,39.6,13.9,39.6z M13.8,64C7.9,64,3.2,59.3,3.2,53.4
	s4.7-10.6,10.6-10.6s10.6,4.7,10.6,10.6S19.6,64,13.8,64z M57.2,39.6c-7.7,0-13.9,6.2-13.9,13.9c0,7.7,6.2,13.9,13.9,13.9
	c7.7,0,13.9-6.2,13.9-13.9C71.1,45.8,64.9,39.6,57.2,39.6z M57.1,64c-5.8,0-10.6-4.7-10.6-10.6s4.7-10.6,10.6-10.6
	s10.6,4.7,10.6,10.6S63,64,57.1,64z"/>
</svg>
